<?xml version="1.0" encoding="UTF-8"?>
<svg width="90" height="50" viewBox="0 0 90 50" fill="none"
  xmlns="http://www.w3.org/2000/svg">
  <g id="Group">
    <path id="Vector" d="M25 24.995L35.6088 35.6017C32.8942 38.3157 29.1417 39.992 25 39.992C16.7166 39.992 10 33.2768 10 24.995C10 16.7132 16.7166 9.998 25 9.998C30.9581 9.998 36.0978 13.4704 38.523 18.4893C39.4511 14.6877 41.1776 11.2053 43.523 8.21193C38.9521 3.17302 32.3453 0 25 0H0L7.31537 7.31391C2.79441 11.8439 0 18.0902 0 24.995C0 38.7947 11.1876 49.99 25 49.99C32.3453 49.99 38.9521 46.817 43.523 41.7681C44.0419 41.1994 44.5309 40.6007 45 39.992C48.1337 35.8112 50 30.6226 50 24.995H25Z" fill="#FED800"/>
    <path id="Vector_2" d="M65 29.9843C67.7545 29.9843 70 27.7393 70 24.9853C70 22.2314 67.7545 19.9863 65 19.9863C62.5449 19.9863 60.499 21.7624 60.0798 24.0973C60.02 24.3866 60 24.676 60 24.9853C60 27.7393 62.2455 29.9843 65 29.9843Z" fill="#FED800"/>
    <path id="Vector_3" d="M90 0H65.4291C65.2894 0 65.1397 0 65 0C57.6547 0 51.0479 3.17302 46.4671 8.22191C45.9581 8.79066 45.4591 9.38934 45 10.008C42.2854 13.62 40.5289 17.9804 40.1098 22.74H50.1697C50.2295 22.3209 50.3094 21.9118 50.4092 21.5127C50.479 21.1934 50.5689 20.8741 50.6687 20.5548C50.7784 20.2055 50.8982 19.8663 51.0279 19.527C51.0379 19.5071 51.0379 19.4971 51.0479 19.4771C51.1776 19.1479 51.3174 18.8186 51.477 18.4993C51.6267 18.18 51.7864 17.8707 51.9661 17.5713C52.0958 17.3418 52.2255 17.1223 52.3752 16.9028C52.4351 16.803 52.495 16.7033 52.5649 16.6035C52.5848 16.5735 52.6048 16.5336 52.6347 16.5037C52.7744 16.2942 52.9341 16.0846 53.0938 15.8751C53.1138 15.8451 53.1437 15.8152 53.1637 15.7853C53.3533 15.5358 53.5529 15.2963 53.7625 15.0569V15.0469C53.992 14.7875 54.2315 14.538 54.481 14.2985C54.7205 14.0491 54.98 13.8196 55.2395 13.6001C55.489 13.3806 55.7485 13.171 56.018 12.9715C56.018 12.9715 56.0379 12.9615 56.0479 12.9515C56.3273 12.742 56.6168 12.5424 56.9062 12.3628C57.3253 12.0834 57.7645 11.834 58.2136 11.6144C58.3832 11.5246 58.5529 11.4448 58.7325 11.365C59.0519 11.2153 59.3812 11.0756 59.7106 10.9559C59.7904 10.926 59.8802 10.8861 59.98 10.8561C60.1597 10.7962 60.3493 10.7264 60.5289 10.6765C60.6986 10.6266 60.8583 10.5767 61.0279 10.5268C61.2874 10.457 61.5469 10.3871 61.8164 10.3273C61.9661 10.2973 62.1158 10.2674 62.2655 10.2475C62.4451 10.2075 62.6247 10.1776 62.8044 10.1577C63.014 10.1277 63.2335 10.0978 63.4531 10.0778C63.6826 10.0479 63.9221 10.0379 64.1617 10.018C64.4411 10.008 64.7106 9.998 64.99 9.998C73.2734 9.998 79.99 16.7132 79.99 25.005C79.99 33.2967 73.2734 40.002 64.99 40.002C64.7106 40.002 64.4411 39.992 64.1617 39.982C63.9221 39.9621 63.6826 39.9521 63.4531 39.9222C63.2335 39.9022 63.014 39.8723 62.8044 39.8423C62.6746 39.8224 62.5349 39.8024 62.4052 39.7725C62.2555 39.7525 62.1058 39.7226 61.9661 39.6927C61.7764 39.6627 61.5868 39.6129 61.3972 39.5729C60.8184 39.4233 60.2495 39.2536 59.7106 39.0441C59.3812 38.9244 59.0519 38.7847 58.7325 38.635C58.5529 38.5552 58.3832 38.4753 58.2136 38.3855C57.7645 38.166 57.3253 37.9166 56.9062 37.6372C56.6168 37.4576 56.3273 37.258 56.0479 37.0485C56.0479 37.0385 56.0279 37.0285 56.018 37.0285C55.7485 36.829 55.489 36.6194 55.2395 36.3999C54.98 36.1804 54.7205 35.9509 54.481 35.7015C54.2315 35.462 53.992 35.2125 53.7625 34.9531C53.5529 34.7136 53.3533 34.4642 53.1637 34.2147C53.1337 34.1848 53.1138 34.1549 53.0938 34.1249C52.9341 33.9154 52.7744 33.7058 52.6347 33.4963L52.3952 33.1371C52.2455 32.9076 52.1058 32.6781 51.9661 32.4386C51.7864 32.1293 51.6267 31.83 51.477 31.5107C50.5489 35.3023 48.8223 38.7947 46.477 41.7781C51.0479 46.827 57.6547 50 65 50C78.8124 50 90 38.8046 90 25.005C90 18.1002 87.2056 11.8539 82.6846 7.32389L90 0Z" fill="#FED800"/>
  </g>
</svg>
